<svg xmlns="http://www.w3.org/2000/svg" viewBox="0 0 482.65 134.25"><defs><style>.cls-1{fill:#231815;}</style></defs><title>アセット 3</title><g id="レイヤー_2" data-name="レイヤー 2"><g id="レイヤー_1-2" data-name="レイヤー 1"><path class="cls-1" d="M99.59,114.57H0V99.26H84.28V61.76H0V17.5H99.59Z"/><path class="cls-1" d="M159.38,23.76l-10,98.75H122.29l9.08-98.75Zm30,69.65,32.47-23.72h26.75l-75,55V3.23h15.81Z"/><path class="cls-1" d="M347.72,8.58,270.83,125.67H228.94L300.38,23.38H267.64L246.94,53.33h-18l31-44.75Z"/><path class="cls-1" d="M395.34,39.37h-9.25l11.1,30.79h-14l-.84-2.36v66.45H360.49V79.41l-5.38,18.34H329.38l23-58.38H343.5V17.5l17.88-.28L360.49,0h21.89V17.5h13Zm87.31,91.35H466.33L451.86,112l-7.21,19.17-20.71-.5,17.71-39.5L425.11,53h-6.06l-2.36,79.24H392.65l5-126.85h81.8V18.51H420.23L419.56,40l62.09,1.18L459.1,100.43Zm-26-78.5-17.4.78,8.4,19.22Z"/></g></g></svg>