<svg xmlns="http://www.w3.org/2000/svg" viewBox="0 0 322.78 56.28"><defs><style>.cls-1{fill:#231815;}</style></defs><title>title_1</title><g id="レイヤー_2" data-name="レイヤー 2"><g id="レイヤー_1-2" data-name="レイヤー 1"><path class="cls-1" d="M42.63,50.94H0V44.39H36.07V20H0V9.4H42.63Z"/><path class="cls-1" d="M64.81,13.08l-4.5,42.27h-9l3.89-42.27ZM80.07,42.89,94,32.73h11.45L73.3,56.28v-52h6.77Z"/><path class="cls-1" d="M152.79,5.58,119.88,55.7H109.31l28-43.78h-18.8l-8.86,12.82H102L115.2,5.58Z"/><path class="cls-1" d="M154.22,52.45,160.56,26h10.25l-7,26.5ZM206.56,19.4H185.31v36H176v-36H155.23l-.5-8.24h20.74V.86h9.34v10.3h21.24ZM201.37,26l6.26,26.5h-9.83L191.31,26Zm1.8-17.31h-4.82L197,0h4.75Zm8.42,0h-4.82L205.33,0h4.82Z"/><path class="cls-1" d="M212.31,34.49v-8.6h47v8.6Z"/><path class="cls-1" d="M306.79,5.58l.94,5.47h3.74L282.1,55.7H270.81l29.5-43.78H280.8l-8.86,12.82h-7.78L277.49,5.58Zm7.56,3.67H309.6L308.16.61h4.75Zm8.42,0H318L316.52.61h4.82Z"/></g></g></svg>